<svg version="1.1" id="Layer_1" xmlns="http://www.w3.org/2000/svg" xmlns:xlink="http://www.w3.org/1999/xlink" x="0px" y="0px"
	 width="100%" viewBox="0 0 522 522" enable-background="new 0 0 522 522" xml:space="preserve">
<path fill="#E8A14C" opacity="1.000000" stroke="none" 
	d="
M340.000000,523.000000 
	C227.048172,523.000000 114.096359,523.000000 1.072267,523.000000 
	C1.072267,349.122375 1.072267,175.244736 1.072267,1.000000 
	C53.021439,1.000000 105.043739,1.000000 157.533020,1.459738 
	C158.315811,5.856419 158.067413,9.943944 159.069260,13.697791 
	C160.939835,20.706602 163.534088,27.522444 165.831848,34.417030 
	C168.734314,43.126038 171.636749,51.835068 174.549103,60.540775 
	C175.582230,63.629066 176.955338,66.641319 177.629974,69.804169 
	C179.140488,76.885612 179.001572,76.915245 186.056854,77.357803 
	C186.037994,78.120689 186.029861,78.556984 185.719772,79.092041 
	C184.479248,80.068947 183.540695,80.947090 181.903107,82.479271 
	C184.024078,82.746017 184.957016,82.863350 185.906891,83.350395 
	C185.981918,84.209984 186.039993,84.699867 185.936127,85.496010 
	C178.826843,89.216370 171.759995,92.410965 164.967468,96.109421 
	C158.800568,99.467255 152.380493,102.731934 147.119904,107.256119 
	C143.411362,110.445518 139.860657,112.687332 134.839783,113.272293 
	C134.260864,111.983536 134.000198,110.750359 133.369415,107.766174 
	C130.884689,110.987465 129.074387,113.334412 127.132492,116.019196 
	C125.347702,117.929848 123.694519,119.502655 121.846909,121.361526 
	C117.029778,125.972588 112.134483,130.050552 107.898186,134.725662 
	C105.746773,137.099930 102.810570,139.814484 103.928299,143.932068 
	C98.193924,144.845215 96.782768,148.442047 97.019608,153.449661 
	C96.919121,153.652679 96.563339,153.933151 96.288406,154.083557 
	C95.760567,154.992981 95.507652,155.752014 95.192711,156.796234 
	C94.684975,157.708694 94.239258,158.335953 93.497322,159.095596 
	C92.883202,159.986389 92.565308,160.744781 92.192230,161.820480 
	C91.616417,163.070160 91.095779,164.002533 90.274994,165.110535 
	C89.481247,167.442383 88.987656,169.598602 88.441757,172.095428 
	C87.971100,175.205276 89.082840,175.884598 91.283150,174.304703 
	C92.436844,173.476273 93.232567,172.149323 94.477341,171.182617 
	C95.663551,172.161255 96.562355,173.004776 97.596420,173.975235 
	C100.448677,171.333084 101.782249,168.648087 100.174545,164.878662 
	C100.554306,164.445389 100.821808,164.241333 101.404541,163.939392 
	C102.469810,162.539276 103.219856,161.237030 104.203163,159.693710 
	C105.403885,159.261826 106.371353,159.071014 107.338821,158.880219 
	C107.356575,160.223389 107.920349,161.924469 107.309845,162.855820 
	C98.705460,175.981934 91.822891,189.926071 86.683083,204.755325 
	C86.347099,205.724701 84.818550,207.076202 84.111588,206.932953 
	C83.080406,206.723999 81.642639,205.395355 81.527779,204.410034 
	C81.247139,202.002426 81.327431,199.455185 81.826042,197.082596 
	C82.297318,194.840103 83.288719,192.571396 80.072716,192.058548 
	C77.124214,191.588364 74.313576,192.165070 73.738091,195.923889 
	C73.490273,197.542603 73.884109,199.538605 73.070297,200.745361 
	C68.514198,207.501373 68.700813,215.037674 68.382072,222.715866 
	C68.122513,228.968506 68.679909,234.101089 75.140549,237.183868 
	C75.704033,239.079224 76.267860,240.584061 77.092621,242.175201 
	C77.516991,242.344360 77.680428,242.427185 77.913132,242.934647 
	C78.214653,247.557205 78.446922,251.755127 78.727097,256.318176 
	C78.712006,257.414459 78.649002,258.145660 78.337791,259.019379 
	C78.248016,260.122101 78.406456,261.082275 78.632805,262.470154 
	C77.957977,264.448547 77.215225,265.999207 76.198578,267.235291 
	C74.599129,261.541718 73.333603,256.146759 71.906784,250.794785 
	C71.539391,249.416702 70.664467,248.173935 69.652786,246.992126 
	C68.497444,248.668472 66.975822,250.253067 67.040497,251.770050 
	C67.684410,266.873077 67.025177,282.265228 69.848450,296.978119 
	C72.857651,312.659912 78.881477,327.820618 84.280937,342.962158 
	C86.979446,350.529480 90.583740,357.956177 94.927582,364.707001 
	C100.026703,372.631561 105.883965,380.222717 112.395004,387.016815 
	C115.475273,390.230927 120.692642,390.747955 122.789680,396.223907 
	C123.750496,398.732849 129.000137,400.111206 132.555344,400.998962 
	C138.406937,402.460175 142.388733,406.336426 146.520493,410.161835 
	C148.443436,411.942139 149.954193,414.380432 152.160065,415.604523 
	C160.500351,420.232758 169.060120,424.464233 177.514252,428.889069 
	C181.074265,430.752380 184.369370,433.574005 188.142395,434.494171 
	C199.958496,437.375977 211.691879,440.491882 223.985596,441.475006 
	C238.671951,442.649506 253.186630,446.156433 268.052032,444.953857 
	C277.279510,444.207397 286.469360,443.005829 295.687012,442.121857 
	C298.083374,441.891998 300.520538,442.087250 302.938965,442.087250 
	C302.936829,442.647705 302.934692,443.208130 302.932587,443.768585 
	C298.564972,444.290192 294.153351,444.574432 289.837555,445.375092 
	C272.506226,448.590363 255.094009,448.058838 237.653702,446.797577 
	C223.208588,445.752869 209.049530,443.374725 195.345245,438.434143 
	C192.688004,437.476166 189.499161,437.992706 186.555542,437.829071 
	C186.439514,438.508820 186.323486,439.188568 186.207458,439.868317 
	C196.607834,442.403290 207.069305,444.713806 217.394333,447.525452 
	C233.136063,451.812134 249.192108,452.843781 265.322693,452.035004 
	C276.184113,451.490448 286.982697,449.692322 297.865875,448.872375 
	C299.683563,453.157135 301.185486,457.171936 303.277405,460.851288 
	C305.454895,464.681152 308.374634,468.082123 310.668365,471.853943 
	C318.138519,484.137909 325.557404,496.455078 332.811066,508.867554 
	C335.473206,513.423035 337.618774,518.280396 340.000000,523.000000 
z"/>
<path fill="#E9A453" opacity="1.000000" stroke="none" 
	d="
M186.067596,77.031212 
	C179.001572,76.915245 179.140488,76.885612 177.629974,69.804169 
	C176.955338,66.641319 175.582230,63.629066 174.549103,60.540775 
	C171.636749,51.835068 168.734314,43.126038 165.831848,34.417030 
	C163.534088,27.522444 160.939835,20.706602 159.069260,13.697791 
	C158.067413,9.943944 158.315811,5.856419 158.000000,1.459738 
	C279.602814,1.000000 401.205658,1.000000 523.000000,1.000000 
	C523.000000,157.020844 523.000000,313.041748 522.666016,469.451935 
	C521.162109,468.947815 519.671753,468.277191 518.871887,467.126617 
	C511.062897,455.894348 503.236481,444.669800 495.682281,433.266083 
	C488.924591,423.064789 482.461151,412.667084 475.947601,402.305969 
	C471.316376,394.939056 466.713989,387.550171 462.284393,380.061279 
	C455.945099,369.343719 449.779175,358.523712 443.530090,347.752777 
	C442.172028,345.412048 441.326294,343.301697 445.475525,343.268372 
	C446.078796,343.898590 446.891296,344.620514 446.933594,344.577881 
	C448.961517,342.534943 451.599884,340.743683 452.763580,338.264191 
	C456.129578,331.092529 459.154083,323.732147 461.822876,316.270691 
	C463.969543,310.269043 466.324646,304.096619 466.897247,297.845184 
	C467.488403,291.391357 468.796600,285.176941 470.048370,278.893982 
	C470.302795,277.616974 470.796600,275.569153 470.194000,275.072174 
	C466.162292,271.747009 468.112732,266.388275 465.466736,262.360046 
	C462.620972,265.345154 460.049835,267.959137 460.806641,272.826660 
	C461.161865,275.111267 459.160767,277.762268 457.990540,280.013306 
	C457.119934,279.071289 456.486328,278.363251 455.306152,277.044495 
	C455.128296,279.277161 455.026520,280.555145 454.773529,281.953491 
	C454.622345,282.073853 454.283051,282.258942 453.939331,282.187469 
	C453.133484,282.048279 452.671326,281.980560 452.196167,281.463745 
	C452.162354,278.005371 452.141510,274.996063 452.287231,271.775452 
	C452.154785,270.639618 451.855804,269.715088 451.453827,268.498138 
	C451.293213,267.797150 451.235626,267.388580 451.346039,266.697418 
	C451.100769,264.898865 450.687469,263.382874 450.115082,261.647186 
	C449.781250,261.111084 449.606506,260.794708 449.555054,259.990479 
	C449.978333,248.729752 450.838043,237.947968 447.033051,227.463623 
	C445.801270,224.069489 445.511139,220.333588 444.898926,216.387726 
	C445.064331,215.007599 445.121155,213.993790 445.315063,212.792496 
	C445.098938,212.012497 444.745728,211.419983 444.221680,210.552032 
	C443.501709,209.348160 442.952606,208.419708 442.517639,207.067841 
	C442.278076,204.358887 441.924347,202.073334 441.453857,199.420151 
	C441.292114,198.027512 441.247131,197.002487 441.364929,195.682602 
	C439.853851,190.524689 438.180023,185.661621 436.348114,180.483170 
	C434.363678,177.882706 432.537354,175.597610 430.742859,172.910492 
	C430.386505,170.598267 429.998322,168.688049 429.430298,166.555481 
	C429.038391,166.016785 428.826294,165.700455 428.649689,165.077957 
	C428.253143,164.125107 427.821136,163.478424 427.242310,162.510071 
	C425.536804,159.621017 423.978119,157.053619 422.492554,154.145996 
	C421.838989,152.480438 421.112335,151.155106 420.219666,149.524811 
	C418.612946,146.911392 417.172211,144.602936 415.721100,141.925705 
	C414.543152,139.330673 413.375580,137.104385 411.845337,134.745300 
	C407.652832,137.283661 406.533081,133.395752 404.651001,131.678818 
	C394.034424,121.994026 383.536072,112.179131 372.868347,102.551651 
	C371.300018,101.136253 369.042969,100.483986 367.104584,99.478638 
	C366.946503,99.747520 366.788422,100.016403 366.630341,100.285286 
	C367.051422,101.018341 367.472473,101.751389 368.524261,103.582535 
	C365.231628,102.467400 362.872742,101.901733 360.718109,100.897690 
	C352.177094,96.917671 344.146484,91.650375 334.373199,90.866890 
	C333.459534,90.793648 332.639008,89.919601 331.710846,89.611023 
	C321.000824,86.050232 310.337616,82.328720 299.528320,79.096909 
	C295.537903,77.903831 291.191650,77.431152 287.014984,77.467583 
	C283.119995,77.501572 279.961121,73.086617 275.700256,75.835976 
	C275.409943,76.023293 274.280823,74.516129 273.408600,74.270805 
	C270.886932,73.561539 268.316284,72.775322 265.728851,72.620270 
	C263.042358,72.459282 260.272461,73.404549 257.614227,73.132156 
	C254.368729,72.799583 251.201584,71.702690 248.001068,70.726875 
	C248.001602,70.517410 248.001373,70.098473 248.391708,69.975090 
	C252.121033,69.161232 255.460022,68.470764 258.799011,67.780289 
	C258.769379,67.396317 258.739777,67.012344 258.710144,66.628372 
	C247.809250,66.628372 236.908371,66.628372 225.858093,66.367508 
	C224.472046,66.372063 223.235428,66.637489 221.637772,67.026474 
	C218.111481,68.405418 214.904800,70.804718 211.789078,70.691879 
	C203.888733,70.405785 196.986450,73.083939 189.678040,76.031418 
	C188.246658,76.380089 187.157120,76.705650 186.067596,77.031212 
M271.199127,64.039474 
	C270.012726,64.301903 268.826355,64.564339 267.639954,64.826767 
	C267.724609,65.288094 267.809235,65.749428 267.893890,66.210754 
	C269.739105,66.210754 271.584320,66.210754 274.881378,66.210754 
	C273.056763,64.943794 272.463226,64.531647 271.199127,64.039474 
M215.709076,41.832577 
	C215.882980,41.957470 216.056870,42.082363 216.230774,42.207253 
	C216.120758,42.024101 216.010727,41.840950 215.709076,41.832577 
z"/>
<path fill="#E8A350" opacity="1.000000" stroke="none" 
	d="
M445.325439,343.003357 
	C441.326294,343.301697 442.172028,345.412048 443.530090,347.752777 
	C449.779175,358.523712 455.945099,369.343719 462.284393,380.061279 
	C466.713989,387.550171 471.316376,394.939056 475.947601,402.305969 
	C482.461151,412.667084 488.924591,423.064789 495.682281,433.266083 
	C503.236481,444.669800 511.062897,455.894348 518.871887,467.126617 
	C519.671753,468.277191 521.162109,468.947815 522.666016,469.920593 
	C523.000000,487.633850 523.000000,505.267700 523.000000,523.000000 
	C462.312469,523.000000 401.624908,523.000000 340.468658,523.000000 
	C337.618774,518.280396 335.473206,513.423035 332.811066,508.867554 
	C325.557404,496.455078 318.138519,484.137909 310.668365,471.853943 
	C308.374634,468.082123 305.454895,464.681152 303.277405,460.851288 
	C301.185486,457.171936 299.683563,453.157135 298.144623,448.673828 
	C299.954102,447.817749 301.540344,447.570831 303.128723,447.338531 
	C309.996429,446.333893 317.226288,446.366425 323.657501,444.115906 
	C336.918915,439.475159 349.667206,433.565796 361.094574,425.013763 
	C373.022644,416.087006 385.637024,408.067322 397.429260,398.973969 
	C401.957123,395.482361 406.682190,394.092438 411.886536,393.663483 
	C417.710663,393.183441 418.857147,392.251343 419.553955,386.218140 
	C419.852081,383.636658 420.416779,380.970062 421.470734,378.615326 
	C423.868011,373.259399 426.776428,368.133728 429.223602,362.798218 
	C431.302246,358.266174 433.025909,353.571350 435.198059,348.819214 
	C435.920166,348.007812 436.350891,347.325775 436.756653,346.255188 
	C436.810913,344.575073 436.890137,343.283508 437.385132,341.975586 
	C438.350677,341.886627 438.900513,341.813995 439.797241,341.693237 
	C441.756042,340.781799 443.367859,339.918457 445.989532,338.514221 
	C445.662506,340.724823 445.493958,341.864105 445.325439,343.003357 
z"/>
<path fill="#131211" opacity="1.000000" stroke="none" 
	d="
M436.969360,341.991943 
	C436.890137,343.283508 436.810913,344.575073 436.462585,346.369019 
	C435.764557,347.563812 435.335602,348.256195 434.906616,348.948578 
	C433.025909,353.571350 431.302246,358.266174 429.223602,362.798218 
	C426.776428,368.133728 423.868011,373.259399 421.470734,378.615326 
	C420.416779,380.970062 419.852081,383.636658 419.553955,386.218140 
	C418.857147,392.251343 417.710663,393.183441 411.886536,393.663483 
	C406.682190,394.092438 401.957123,395.482361 397.429260,398.973969 
	C385.637024,408.067322 373.022644,416.087006 361.094574,425.013763 
	C349.667206,433.565796 336.918915,439.475159 323.657501,444.115906 
	C317.226288,446.366425 309.996429,446.333893 303.128723,447.338531 
	C301.540344,447.570831 299.954102,447.817749 298.088135,448.256470 
	C286.982697,449.692322 276.184113,451.490448 265.322693,452.035004 
	C249.192108,452.843781 233.136063,451.812134 217.394333,447.525452 
	C207.069305,444.713806 196.607834,442.403290 186.207458,439.868317 
	C186.323486,439.188568 186.439514,438.508820 186.555542,437.829071 
	C189.499161,437.992706 192.688004,437.476166 195.345245,438.434143 
	C209.049530,443.374725 223.208588,445.752869 237.653702,446.797577 
	C255.094009,448.058838 272.506226,448.590363 289.837555,445.375092 
	C294.153351,444.574432 298.564972,444.290192 302.932587,443.768585 
	C302.934692,443.208130 302.936829,442.647705 302.938965,442.087250 
	C300.520538,442.087250 298.083374,441.891998 295.687012,442.121857 
	C286.469360,443.005829 277.279510,444.207397 268.052032,444.953857 
	C253.186630,446.156433 238.671951,442.649506 223.985596,441.475006 
	C211.691879,440.491882 199.958496,437.375977 188.142395,434.494171 
	C184.369370,433.574005 181.074265,430.752380 177.514252,428.889069 
	C169.060120,424.464233 160.500351,420.232758 152.160065,415.604523 
	C149.954193,414.380432 148.443436,411.942139 146.520493,410.161835 
	C142.388733,406.336426 138.406937,402.460175 132.555344,400.998962 
	C129.000137,400.111206 123.750496,398.732849 122.789680,396.223907 
	C120.692642,390.747955 115.475273,390.230927 112.395004,387.016815 
	C105.883965,380.222717 100.026703,372.631561 94.927582,364.707001 
	C90.583740,357.956177 86.979446,350.529480 84.280937,342.962158 
	C78.881477,327.820618 72.857651,312.659912 69.848450,296.978119 
	C67.025177,282.265228 67.684410,266.873077 67.040497,251.770050 
	C66.975822,250.253067 68.497444,248.668472 69.896881,247.396851 
	C71.139481,252.564362 73.272667,257.863098 72.069977,262.246582 
	C69.859375,270.303680 72.101860,277.738098 72.813179,285.408630 
	C72.942345,286.801514 74.215172,288.088348 74.960037,289.424103 
	C75.524200,289.223328 76.088371,289.022522 76.652542,288.821716 
	C76.107018,283.148804 75.561493,277.475861 75.015968,271.802948 
	C74.661880,271.795197 74.307793,271.787476 73.953705,271.779724 
	C74.793297,270.369781 75.632896,268.959839 76.472488,267.549896 
	C77.215225,265.999207 77.957977,264.448547 78.791504,262.177399 
	C78.783516,260.596893 78.684761,259.736877 78.585999,258.876831 
	C78.649002,258.145660 78.712006,257.414459 78.909111,255.960297 
	C79.303833,252.156723 79.769272,249.072906 79.720703,245.997208 
	C79.702194,244.825226 78.504272,243.671875 77.843864,242.510025 
	C77.680428,242.427185 77.516991,242.344360 77.034027,241.793182 
	C76.189972,239.814331 75.665428,238.303848 75.140884,236.793350 
	C68.679909,234.101089 68.122513,228.968506 68.382072,222.715866 
	C68.700813,215.037674 68.514198,207.501373 73.070297,200.745361 
	C73.884109,199.538605 73.490273,197.542603 73.738091,195.923889 
	C74.313576,192.165070 77.124214,191.588364 80.072716,192.058548 
	C83.288719,192.571396 82.297318,194.840103 81.826042,197.082596 
	C81.327431,199.455185 81.247139,202.002426 81.527779,204.410034 
	C81.642639,205.395355 83.080406,206.723999 84.111588,206.932953 
	C84.818550,207.076202 86.347099,205.724701 86.683083,204.755325 
	C91.822891,189.926071 98.705460,175.981934 107.309845,162.855820 
	C107.920349,161.924469 107.356575,160.223389 107.338821,158.880219 
	C106.371353,159.071014 105.403885,159.261826 103.881042,159.760208 
	C102.580223,161.390945 101.834763,162.714111 101.089310,164.037277 
	C100.821808,164.241333 100.554306,164.445389 99.851929,164.992828 
	C97.674675,167.239960 95.932312,169.143738 94.189941,171.047516 
	C93.232567,172.149323 92.436844,173.476273 91.283150,174.304703 
	C89.082840,175.884598 87.971100,175.205276 88.699448,171.840225 
	C89.531342,169.141235 90.053230,167.038071 90.575134,164.934906 
	C91.095779,164.002533 91.616417,163.070160 92.459091,161.658127 
	C93.118599,160.440048 93.456070,159.701614 93.793549,158.963196 
	C94.239258,158.335953 94.684975,157.708694 95.452484,156.632904 
	C96.037308,155.433945 96.300323,154.683548 96.563339,153.933151 
	C96.563339,153.933151 96.919121,153.652679 97.409500,153.465027 
	C102.893600,153.110229 105.593994,149.730194 108.380310,145.914566 
	C110.149323,142.950623 111.599640,140.096161 113.313934,137.023041 
	C117.067596,133.054535 120.557266,129.304672 124.021927,125.531639 
	C123.996925,125.508461 124.043785,125.562523 124.359131,125.393188 
	C127.275192,122.500069 129.875916,119.776283 132.791718,117.048691 
	C133.790543,115.805885 134.474289,114.566879 135.158051,113.327873 
	C139.860657,112.687332 143.411362,110.445518 147.119904,107.256119 
	C152.380493,102.731934 158.800568,99.467255 164.967468,96.109421 
	C171.759995,92.410965 178.826843,89.216370 186.199127,85.322983 
	C193.688156,85.075706 195.491791,84.513199 198.054398,81.439804 
	C196.518234,81.086983 194.857224,80.705490 193.386139,80.367615 
	C193.532532,79.976288 193.241989,80.752968 192.951431,81.529655 
	C192.533264,81.569244 192.115097,81.608833 191.696915,81.648422 
	C191.137909,79.768387 190.578903,77.888351 190.019882,76.008316 
	C196.986450,73.083939 203.888733,70.405785 211.789078,70.691879 
	C214.904800,70.804718 218.111481,68.405418 222.039307,67.080017 
	C223.870392,66.882790 224.938950,66.755585 226.007492,66.628372 
	C236.908371,66.628372 247.809250,66.628372 258.710144,66.628372 
	C258.739777,67.012344 258.769379,67.396317 258.799011,67.780289 
	C255.460022,68.470764 252.121033,69.161232 248.106400,69.920654 
	C246.913101,70.131569 246.395462,70.273529 245.877808,70.415489 
	C245.895660,70.589111 245.913513,70.762726 245.931351,70.936340 
	C246.621094,70.936340 247.310822,70.936340 248.000549,70.936340 
	C251.201584,71.702690 254.368729,72.799583 257.614227,73.132156 
	C260.272461,73.404549 263.042358,72.459282 265.728851,72.620270 
	C268.316284,72.775322 270.886932,73.561539 273.408600,74.270805 
	C274.280823,74.516129 275.409943,76.023293 275.700256,75.835976 
	C279.961121,73.086617 283.119995,77.501572 287.014984,77.467583 
	C291.191650,77.431152 295.537903,77.903831 299.528320,79.096909 
	C310.337616,82.328720 321.000824,86.050232 331.710846,89.611023 
	C332.639008,89.919601 333.459534,90.793648 334.373199,90.866890 
	C344.146484,91.650375 352.177094,96.917671 360.718109,100.897690 
	C362.872742,101.901733 365.231628,102.467400 368.524261,103.582535 
	C367.472473,101.751389 367.051422,101.018341 366.630341,100.285286 
	C366.788422,100.016403 366.946503,99.747520 367.104584,99.478638 
	C369.042969,100.483986 371.300018,101.136253 372.868347,102.551651 
	C383.536072,112.179131 394.034424,121.994026 404.651001,131.678818 
	C406.533081,133.395752 407.652832,137.283661 411.844971,135.112854 
	C413.382050,137.840302 414.556763,140.067383 415.731476,142.294464 
	C417.172211,144.602936 418.612946,146.911392 420.194153,149.855042 
	C421.029572,151.822235 421.724518,153.154236 422.419434,154.486237 
	C423.978119,157.053619 425.536804,159.621017 427.185913,162.813324 
	C427.722260,164.086884 428.168243,164.735504 428.614197,165.384125 
	C428.826294,165.700455 429.038391,166.016785 429.314331,166.946198 
	C429.822449,169.477036 430.266754,171.394775 430.711029,173.312531 
	C432.537354,175.597610 434.363678,177.882706 436.277924,180.860031 
	C437.977936,186.360672 439.590027,191.169067 441.202148,195.977463 
	C441.247131,197.002487 441.292114,198.027512 441.341858,199.825104 
	C441.698944,202.895523 442.051239,205.193390 442.403503,207.491241 
	C442.952606,208.419708 443.501709,209.348160 444.187836,210.852768 
	C444.609222,211.945938 444.893616,212.462952 445.177979,212.979980 
	C445.121155,213.993790 445.064331,215.007599 444.583832,216.515381 
	C444.229462,218.892471 444.080780,220.814224 444.406403,222.651947 
	C445.720062,230.065994 447.433563,237.417831 448.498901,244.864243 
	C449.234833,250.008133 449.149872,255.269485 449.431763,260.478333 
	C449.606506,260.794708 449.781250,261.111084 450.105591,262.029541 
	C450.562805,264.081055 450.870422,265.530518 451.178040,266.979980 
	C451.235626,267.388580 451.293213,267.797150 451.338684,268.821136 
	C451.591217,270.286621 451.855927,271.136688 452.120667,271.986755 
	C452.141510,274.996063 452.162354,278.005371 452.005341,281.815613 
	C451.558441,284.748108 451.289368,286.879669 450.885864,289.391357 
	C450.317230,292.899200 449.882996,296.026947 449.260040,299.341675 
	C448.990417,300.377625 448.909546,301.226685 448.668121,302.403198 
	C447.960754,305.047089 447.413910,307.363495 446.585815,309.864044 
	C446.179108,311.367401 446.053680,312.686646 445.658691,314.313110 
	C442.804382,322.150940 440.219635,329.681580 437.427948,337.377136 
	C437.120850,338.372559 437.020721,339.203003 436.809937,340.356842 
	C436.789337,341.117462 436.879364,341.554688 436.969360,341.991943 
M389.821075,327.499023 
	C389.821045,309.672424 389.676727,291.843872 389.918884,274.020569 
	C389.982178,269.361633 388.871063,267.698975 383.879120,267.734924 
	C352.892242,267.957977 321.901947,267.972412 290.915466,267.724365 
	C285.715637,267.682739 284.474823,269.313965 284.543274,274.241516 
	C284.760406,289.876007 283.314636,291.160797 267.986877,291.161041 
	C251.141891,291.161316 250.215027,290.388947 250.264252,273.327911 
	C250.277237,268.836243 248.819717,267.734375 244.518753,267.759094 
	C215.197281,267.927795 185.873871,267.935150 156.552536,267.754791 
	C152.036026,267.727020 150.515854,268.943970 150.555847,273.604980 
	C150.761642,297.594269 150.621429,321.586365 150.665314,345.577332 
	C150.685776,356.757721 153.824310,359.835724 164.956070,359.836456 
	C234.596848,359.840851 304.237610,359.838715 373.878387,359.837769 
	C375.044556,359.837769 376.213379,359.874207 377.376495,359.811127 
	C384.902008,359.402985 388.819092,355.910950 389.321381,348.471222 
	C389.769592,341.832550 389.675476,335.157288 389.821075,327.499023 
M364.500000,259.841003 
	C373.997314,259.839325 383.496033,259.743866 392.991119,259.887970 
	C396.223938,259.937012 397.452820,258.798126 397.395325,255.549423 
	C397.256714,247.720688 397.596893,239.876022 397.218018,232.063278 
	C397.094299,229.511841 395.914825,226.548462 394.244781,224.613770 
	C386.190491,215.283310 377.386627,206.574509 369.683716,196.975143 
	C364.645020,190.695923 358.908539,191.105438 352.166534,192.187515 
	C352.399780,194.434128 352.681061,196.386917 352.784302,198.349060 
	C352.889252,200.343277 352.859985,202.347595 352.817413,204.345947 
	C352.680115,210.792786 349.162445,214.708176 342.682800,214.894318 
	C334.192657,215.138199 325.686188,215.111435 317.194519,214.895187 
	C311.756134,214.756714 308.741119,211.589249 308.290039,206.046478 
	C308.060913,203.230820 307.959534,200.364243 308.216492,197.558807 
	C308.624786,193.101196 307.142395,191.303665 302.388611,191.502914 
	C294.072144,191.851501 285.730499,191.599503 277.399384,191.599243 
	C262.236786,191.598770 247.072983,191.702759 231.912415,191.526993 
	C227.953339,191.481110 226.567093,192.863251 226.766815,196.746277 
	C226.945435,200.218674 226.821396,203.755066 226.360260,207.200226 
	C225.723206,211.959686 222.622940,214.741318 217.903076,214.870453 
	C209.246384,215.107269 200.570618,215.148727 191.917587,214.847107 
	C185.737106,214.631668 182.217651,210.676178 182.036850,204.500854 
	C181.917191,200.414413 182.014191,196.321640 182.014191,192.029709 
	C177.002457,190.863770 172.785080,191.573410 168.937393,196.062576 
	C160.375610,206.051758 151.227417,215.536407 142.522461,225.406830 
	C141.139008,226.975540 140.194336,229.457748 140.116699,231.557205 
	C139.833694,239.211365 140.202530,246.889511 139.924454,254.544037 
	C139.773804,258.690857 141.147934,259.941956 145.304855,259.923309 
	C178.461975,259.774536 211.620316,259.778809 244.777496,259.919556 
	C248.842178,259.936798 250.280731,258.835236 250.284378,254.618225 
	C250.290741,247.243546 253.743515,244.154587 261.192596,244.015411 
	C265.190155,243.940735 269.190369,243.977325 273.189117,244.004181 
	C281.195557,244.057953 284.426483,246.721909 284.483185,254.586487 
	C284.517426,259.333038 286.509247,259.937195 290.519989,259.913208 
	C314.845947,259.767609 339.173187,259.840759 364.500000,259.841003 
M326.719574,187.282898 
	C326.715820,176.451248 326.776306,165.619064 326.686951,154.788132 
	C326.621338,146.831345 323.701385,144.005600 315.710846,144.000748 
	C283.549225,143.981232 251.387604,143.981674 219.225983,144.000122 
	C210.907730,144.004898 208.215866,146.724899 208.186203,155.133270 
	C208.146805,166.298050 208.100571,177.463730 208.206558,188.627594 
	C208.242874,192.452362 206.682251,194.159851 202.850754,194.010834 
	C199.856262,193.894333 196.830872,193.777893 193.858047,194.064423 
	C187.862564,194.642288 190.453903,199.451157 189.959579,202.638824 
	C189.492355,205.651779 190.694534,207.282867 194.101364,207.202591 
	C200.763214,207.045624 207.438354,206.979950 214.094406,207.233292 
	C217.891159,207.377808 218.985275,205.929428 218.939835,202.300812 
	C218.783371,189.804764 218.854126,177.305389 218.898514,164.807510 
	C218.918640,159.141357 220.685394,157.217377 226.317734,157.203751 
	C253.646591,157.137604 280.975769,157.141586 308.304688,157.198273 
	C314.148224,157.210403 315.988495,159.188095 316.007843,165.081818 
	C316.048920,177.579727 316.109955,190.078766 315.973419,202.575272 
	C315.936005,205.997894 317.033600,207.353333 320.564178,207.221085 
	C326.388367,207.002930 332.226776,207.172546 338.059174,207.164154 
	C345.067719,207.154053 344.854584,207.140610 345.072113,200.352585 
	C345.223236,195.637192 343.595062,193.452682 338.726715,193.958618 
	C336.748474,194.164185 334.722534,193.873077 332.732880,194.014038 
	C328.517670,194.312668 326.405334,192.565933 326.719574,187.282898 
M258.173676,280.929230 
	C258.828430,281.767242 259.450653,283.299133 260.143188,283.331604 
	C264.940491,283.556519 269.756470,283.569427 274.555542,283.377625 
	C275.295502,283.348022 276.585297,281.927002 276.597137,281.134216 
	C276.739655,271.576508 276.689362,262.015900 276.689362,251.979767 
	C271.462799,251.979767 266.994629,252.170654 262.551331,251.920151 
	C258.911255,251.714951 257.999084,253.333130 258.062805,256.629028 
	C258.213593,264.427216 258.120392,272.230194 258.173676,280.929230 
z"/>
<path fill="#34291B" opacity="1.000000" stroke="none" 
	d="
M124.043785,125.562523 
	C124.043785,125.562523 123.996925,125.508461 123.671646,125.286774 
	C119.766258,128.534897 116.165939,131.984634 112.654037,135.522141 
	C112.432961,135.744843 112.901985,136.652618 113.049957,137.241684 
	C111.599640,140.096161 110.149323,142.950623 108.355667,145.578796 
	C108.037064,141.677856 105.477196,144.578064 104.323105,143.902222 
	C102.810570,139.814484 105.746773,137.099930 107.898186,134.725662 
	C112.134483,130.050552 117.029778,125.972588 122.051414,121.351257 
	C122.450348,121.054909 122.858330,121.090546 122.954636,121.341370 
	C123.256889,122.084518 123.462837,122.576828 123.516830,123.518509 
	C123.591179,124.499428 123.817482,125.030975 124.043785,125.562523 
z"/>
<path fill="#AE793C" opacity="1.000000" stroke="none" 
	d="
M76.198586,267.235291 
	C75.632896,268.959839 74.793297,270.369781 73.953705,271.779724 
	C74.307793,271.787476 74.661880,271.795197 75.015968,271.802948 
	C75.561493,277.475861 76.107018,283.148804 76.652542,288.821716 
	C76.088371,289.022522 75.524200,289.223328 74.960037,289.424103 
	C74.215172,288.088348 72.942345,286.801514 72.813179,285.408630 
	C72.101860,277.738098 69.859375,270.303680 72.069977,262.246582 
	C73.272667,257.863098 71.139481,252.564362 70.266785,247.273712 
	C70.664467,248.173935 71.539391,249.416702 71.906784,250.794785 
	C73.333603,256.146759 74.599129,261.541718 76.198586,267.235291 
z"/>
<path fill="#C98D44" opacity="1.000000" stroke="none" 
	d="
M103.928299,143.932068 
	C105.477196,144.578064 108.037064,141.677856 108.036957,145.688263 
	C105.593994,149.730194 102.893600,153.110229 97.509979,153.262009 
	C96.782768,148.442047 98.193924,144.845215 103.928299,143.932068 
z"/>
<path fill="#CB8F47" opacity="1.000000" stroke="none" 
	d="
M189.678040,76.031418 
	C190.578903,77.888351 191.137909,79.768387 191.696915,81.648422 
	C192.115097,81.608833 192.533264,81.569244 192.951431,81.529655 
	C193.241989,80.752968 193.532532,79.976288 193.386139,80.367615 
	C194.857224,80.705490 196.518234,81.086983 198.054398,81.439804 
	C195.491791,84.513199 193.688156,85.075706 186.361084,85.016708 
	C186.039993,84.699867 185.981918,84.209984 186.118835,83.121872 
	C186.216461,81.346855 186.119095,80.170067 186.021729,78.993279 
	C186.029861,78.556984 186.037994,78.120689 186.056854,77.357803 
	C187.157120,76.705650 188.246658,76.380089 189.678040,76.031418 
z"/>
<path fill="#C18743" opacity="1.000000" stroke="none" 
	d="
M122.858330,121.090546 
	C122.858330,121.090546 122.450348,121.054909 122.245834,121.065186 
	C123.694519,119.502655 125.347702,117.929848 127.515442,116.044632 
	C129.512207,116.172318 130.994431,116.612404 132.476639,117.052490 
	C129.875916,119.776283 127.275192,122.500069 124.359131,125.393188 
	C123.817482,125.030975 123.591179,124.499428 123.713852,123.347664 
	C123.661324,122.181816 123.259827,121.636177 122.858330,121.090546 
z"/>
<path fill="#614728" opacity="1.000000" stroke="none" 
	d="
M132.791718,117.048691 
	C130.994431,116.612404 129.512207,116.172318 127.647049,115.706787 
	C129.074387,113.334412 130.884689,110.987465 133.369415,107.766174 
	C134.000198,110.750359 134.260864,111.983536 134.839783,113.272293 
	C134.474289,114.566879 133.790543,115.805885 132.791718,117.048691 
z"/>
<path fill="#C98D44" opacity="1.000000" stroke="none" 
	d="
M94.477341,171.182617 
	C95.932312,169.143738 97.674675,167.239960 99.739655,165.222015 
	C101.782249,168.648087 100.448677,171.333084 97.596420,173.975235 
	C96.562355,173.004776 95.663551,172.161255 94.477341,171.182617 
z"/>
<path fill="#AE793C" opacity="1.000000" stroke="none" 
	d="
M77.913132,242.934647 
	C78.504272,243.671875 79.702194,244.825226 79.720703,245.997208 
	C79.769272,249.072906 79.303833,252.156723 78.861191,255.595184 
	C78.446922,251.755127 78.214653,247.557205 77.913132,242.934647 
z"/>
<path fill="#E9A453" opacity="1.000000" stroke="none" 
	d="
M185.719757,79.092041 
	C186.119095,80.170067 186.216461,81.346855 186.101898,82.752167 
	C184.957016,82.863350 184.024078,82.746017 181.903107,82.479271 
	C183.540695,80.947090 184.479248,80.068947 185.719757,79.092041 
z"/>
<path fill="#C98D44" opacity="1.000000" stroke="none" 
	d="
M90.274979,165.110535 
	C90.053230,167.038071 89.531342,169.141235 88.751755,171.499603 
	C88.987656,169.598602 89.481247,167.442383 90.274979,165.110535 
z"/>
<path fill="#AE793C" opacity="1.000000" stroke="none" 
	d="
M75.140549,237.183868 
	C75.665428,238.303848 76.189972,239.814331 76.773094,241.706863 
	C76.267860,240.584061 75.704033,239.079224 75.140549,237.183868 
z"/>
<path fill="#C98D44" opacity="1.000000" stroke="none" 
	d="
M101.404541,163.939392 
	C101.834763,162.714111 102.580223,161.390945 103.647797,160.001282 
	C103.219856,161.237030 102.469810,162.539276 101.404541,163.939392 
z"/>
<path fill="#AE793C" opacity="1.000000" stroke="none" 
	d="
M78.337791,259.019379 
	C78.684761,259.736877 78.783516,260.596893 78.723587,261.749695 
	C78.406456,261.082275 78.248016,260.122101 78.337791,259.019379 
z"/>
<path fill="#C98D44" opacity="1.000000" stroke="none" 
	d="
M93.497322,159.095596 
	C93.456070,159.701614 93.118599,160.440048 92.514267,161.340820 
	C92.565308,160.744781 92.883202,159.986389 93.497322,159.095596 
z"/>
<path fill="#C98D44" opacity="1.000000" stroke="none" 
	d="
M96.288406,154.083557 
	C96.300323,154.683548 96.037308,155.433945 95.514511,156.347687 
	C95.507652,155.752014 95.760567,154.992981 96.288406,154.083557 
z"/>
<path fill="#1E1A15" opacity="1.000000" stroke="none" 
	d="
M445.475525,343.268372 
	C445.493958,341.864105 445.662506,340.724823 445.989532,338.514221 
	C443.367859,339.918457 441.756042,340.781799 439.820923,341.353149 
	C440.377686,339.130585 441.427124,337.257751 442.108368,335.259399 
	C445.063141,326.591553 448.392670,318.009003 450.631805,309.154144 
	C452.194122,302.975739 452.209229,296.406097 453.024292,289.627869 
	C453.516479,286.916016 453.899780,284.587494 454.283051,282.258942 
	C454.283051,282.258942 454.622345,282.073853 454.990692,282.247772 
	C455.921082,283.909393 456.483124,285.397095 457.045166,286.884796 
	C457.579803,286.780518 458.114410,286.676270 458.649017,286.571991 
	C458.508514,284.463745 458.368011,282.355469 458.227509,280.247223 
	C459.160767,277.762268 461.161865,275.111267 460.806641,272.826660 
	C460.049835,267.959137 462.620972,265.345154 465.466736,262.360046 
	C468.112732,266.388275 466.162292,271.747009 470.194000,275.072174 
	C470.796600,275.569153 470.302795,277.616974 470.048370,278.893982 
	C468.796600,285.176941 467.488403,291.391357 466.897247,297.845184 
	C466.324646,304.096619 463.969543,310.269043 461.822876,316.270691 
	C459.154083,323.732147 456.129578,331.092529 452.763580,338.264191 
	C451.599884,340.743683 448.961517,342.534943 446.933594,344.577881 
	C446.891296,344.620514 446.078796,343.898590 445.475525,343.268372 
z"/>
<path fill="#9D703B" opacity="1.000000" stroke="none" 
	d="
M449.554993,259.990479 
	C449.149872,255.269485 449.234833,250.008133 448.498901,244.864243 
	C447.433563,237.417831 445.720062,230.065994 444.406403,222.651947 
	C444.080780,220.814224 444.229462,218.892471 444.475220,216.881683 
	C445.511139,220.333588 445.801270,224.069489 447.033051,227.463623 
	C450.838043,237.947968 449.978333,248.729752 449.554993,259.990479 
z"/>
<path fill="#9D703B" opacity="1.000000" stroke="none" 
	d="
M441.364899,195.682602 
	C439.590027,191.169067 437.977936,186.360672 436.436035,181.175415 
	C438.180023,185.661621 439.853851,190.524689 441.364899,195.682602 
z"/>
<path fill="#9D703B" opacity="1.000000" stroke="none" 
	d="
M457.990540,280.013306 
	C458.368011,282.355469 458.508514,284.463745 458.649017,286.571991 
	C458.114410,286.676270 457.579803,286.780518 457.045166,286.884796 
	C456.483124,285.397095 455.921082,283.909393 455.141876,282.127411 
	C455.026520,280.555145 455.128296,279.277161 455.306152,277.044495 
	C456.486328,278.363251 457.119934,279.071289 457.990540,280.013306 
z"/>
<path fill="#9D703B" opacity="1.000000" stroke="none" 
	d="
M453.939331,282.187469 
	C453.899780,284.587494 453.516479,286.916016 452.779480,289.518768 
	C451.957275,289.532410 451.488800,289.271820 451.020294,289.011261 
	C451.289368,286.879669 451.558441,284.748108 452.018341,282.264648 
	C452.671326,281.980560 453.133484,282.048279 453.939331,282.187469 
z"/>
<path fill="#E8A14C" opacity="1.000000" stroke="none" 
	d="
M271.534393,64.079483 
	C272.463226,64.531647 273.056763,64.943794 274.881378,66.210754 
	C271.584320,66.210754 269.739105,66.210754 267.893890,66.210754 
	C267.809235,65.749428 267.724609,65.288094 267.639954,64.826767 
	C268.826355,64.564339 270.012726,64.301903 271.534393,64.079483 
z"/>
<path fill="#9D703B" opacity="1.000000" stroke="none" 
	d="
M442.517639,207.067841 
	C442.051239,205.193390 441.698944,202.895523 441.458618,200.192719 
	C441.924347,202.073334 442.278076,204.358887 442.517639,207.067841 
z"/>
<path fill="#9D703B" opacity="1.000000" stroke="none" 
	d="
M415.721100,141.925705 
	C414.556763,140.067383 413.382050,137.840302 412.207672,135.245667 
	C413.375580,137.104385 414.543152,139.330673 415.721100,141.925705 
z"/>
<path fill="#9D703B" opacity="1.000000" stroke="none" 
	d="
M430.742859,172.910507 
	C430.266754,171.394775 429.822449,169.477036 429.494141,167.168564 
	C429.998322,168.688049 430.386505,170.598267 430.742859,172.910507 
z"/>
<path fill="#9D703B" opacity="1.000000" stroke="none" 
	d="
M451.346039,266.697418 
	C450.870422,265.530518 450.562805,264.081055 450.264679,262.249237 
	C450.687469,263.382874 451.100769,264.898865 451.346039,266.697418 
z"/>
<path fill="#9D703B" opacity="1.000000" stroke="none" 
	d="
M422.492554,154.145996 
	C421.724518,153.154236 421.029572,151.822235 420.360168,150.160004 
	C421.112335,151.155106 421.838989,152.480438 422.492554,154.145996 
z"/>
<path fill="#E8A14C" opacity="1.000000" stroke="none" 
	d="
M225.858093,66.367508 
	C224.938950,66.755585 223.870392,66.882790 222.400330,66.956451 
	C223.235428,66.637489 224.472046,66.372063 225.858093,66.367508 
z"/>
<path fill="#9D703B" opacity="1.000000" stroke="none" 
	d="
M452.287201,271.775452 
	C451.855927,271.136688 451.591217,270.286621 451.441650,269.113525 
	C451.855804,269.715088 452.154785,270.639618 452.287201,271.775452 
z"/>
<path fill="#9D703B" opacity="1.000000" stroke="none" 
	d="
M445.315063,212.792496 
	C444.893616,212.462952 444.609222,211.945938 444.358704,211.128204 
	C444.745728,211.419983 445.098938,212.012497 445.315063,212.792496 
z"/>
<path fill="#E8A14C" opacity="1.000000" stroke="none" 
	d="
M215.804886,41.745186 
	C216.010727,41.840950 216.120758,42.024101 216.230774,42.207253 
	C216.056870,42.082363 215.882980,41.957470 215.804886,41.745186 
z"/>
<path fill="#9D703B" opacity="1.000000" stroke="none" 
	d="
M428.649719,165.077942 
	C428.168243,164.735504 427.722260,164.086884 427.332703,163.135010 
	C427.821136,163.478424 428.253143,164.125107 428.649719,165.077942 
z"/>
<path fill="#E8A14C" opacity="1.000000" stroke="none" 
	d="
M248.001068,70.726875 
	C247.310822,70.936340 246.621094,70.936340 245.931351,70.936340 
	C245.913513,70.762726 245.895660,70.589111 245.877808,70.415489 
	C246.395462,70.273529 246.913101,70.131569 247.716064,70.044037 
	C248.001373,70.098473 248.001602,70.517410 248.001068,70.726875 
z"/>
<path fill="#C28A46" opacity="1.000000" stroke="none" 
	d="
M450.885864,289.391357 
	C451.488800,289.271820 451.957275,289.532410 452.670593,289.902100 
	C452.209229,296.406097 452.194122,302.975739 450.631805,309.154144 
	C448.392670,318.009003 445.063141,326.591553 442.108368,335.259399 
	C441.427124,337.257751 440.377686,339.130585 439.473999,341.401245 
	C438.900513,341.813995 438.350677,341.886627 437.385132,341.975586 
	C436.879364,341.554688 436.789337,341.117462 437.012054,340.044067 
	C437.428162,338.676025 437.531525,337.944122 437.634888,337.212219 
	C440.219635,329.681580 442.804382,322.150940 445.868561,314.073120 
	C446.521027,312.243927 446.694061,310.961914 446.867065,309.679932 
	C447.413910,307.363495 447.960754,305.047089 448.880615,302.080994 
	C449.318695,300.672455 449.383728,299.913574 449.448792,299.154724 
	C449.882996,296.026947 450.317230,292.899200 450.885864,289.391357 
z"/>
<path fill="#B98343" opacity="1.000000" stroke="none" 
	d="
M435.198059,348.819214 
	C435.335602,348.256195 435.764557,347.563812 436.487549,346.757568 
	C436.350891,347.325775 435.920166,348.007812 435.198059,348.819214 
z"/>
<path fill="#B6410E" opacity="1.000000" stroke="none" 
	d="
M389.820862,327.998596 
	C389.675476,335.157288 389.769592,341.832550 389.321381,348.471222 
	C388.819092,355.910950 384.902008,359.402985 377.376495,359.811127 
	C376.213379,359.874207 375.044556,359.837769 373.878387,359.837769 
	C304.237610,359.838715 234.596848,359.840851 164.956070,359.836456 
	C153.824310,359.835724 150.685776,356.757721 150.665314,345.577332 
	C150.621429,321.586365 150.761642,297.594269 150.555847,273.604980 
	C150.515854,268.943970 152.036026,267.727020 156.552536,267.754791 
	C185.873871,267.935150 215.197281,267.927795 244.518753,267.759094 
	C248.819717,267.734375 250.277237,268.836243 250.264252,273.327911 
	C250.215027,290.388947 251.141891,291.161316 267.986877,291.161041 
	C283.314636,291.160797 284.760406,289.876007 284.543274,274.241516 
	C284.474823,269.313965 285.715637,267.682739 290.915466,267.724365 
	C321.901947,267.972412 352.892242,267.957977 383.879120,267.734924 
	C388.871063,267.698975 389.982178,269.361633 389.918884,274.020569 
	C389.676727,291.843872 389.821045,309.672424 389.820862,327.998596 
z"/>
<path fill="#B5410E" opacity="1.000000" stroke="none" 
	d="
M364.000000,259.840912 
	C339.173187,259.840759 314.845947,259.767609 290.519989,259.913208 
	C286.509247,259.937195 284.517426,259.333038 284.483185,254.586487 
	C284.426483,246.721909 281.195557,244.057953 273.189117,244.004181 
	C269.190369,243.977325 265.190155,243.940735 261.192596,244.015411 
	C253.743515,244.154587 250.290741,247.243546 250.284378,254.618225 
	C250.280731,258.835236 248.842178,259.936798 244.777496,259.919556 
	C211.620316,259.778809 178.461975,259.774536 145.304855,259.923309 
	C141.147934,259.941956 139.773804,258.690857 139.924454,254.544037 
	C140.202530,246.889511 139.833694,239.211365 140.116699,231.557205 
	C140.194336,229.457748 141.139008,226.975540 142.522461,225.406830 
	C151.227417,215.536407 160.375610,206.051758 168.937393,196.062576 
	C172.785080,191.573410 177.002457,190.863770 182.014191,192.029709 
	C182.014191,196.321640 181.917191,200.414413 182.036850,204.500854 
	C182.217651,210.676178 185.737106,214.631668 191.917587,214.847107 
	C200.570618,215.148727 209.246384,215.107269 217.903076,214.870453 
	C222.622940,214.741318 225.723206,211.959686 226.360260,207.200226 
	C226.821396,203.755066 226.945435,200.218674 226.766815,196.746277 
	C226.567093,192.863251 227.953339,191.481110 231.912415,191.526993 
	C247.072983,191.702759 262.236786,191.598770 277.399384,191.599243 
	C285.730499,191.599503 294.072144,191.851501 302.388611,191.502914 
	C307.142395,191.303665 308.624786,193.101196 308.216492,197.558807 
	C307.959534,200.364243 308.060913,203.230820 308.290039,206.046478 
	C308.741119,211.589249 311.756134,214.756714 317.194519,214.895187 
	C325.686188,215.111435 334.192657,215.138199 342.682800,214.894318 
	C349.162445,214.708176 352.680115,210.792786 352.817413,204.345947 
	C352.859985,202.347595 352.889252,200.343277 352.784302,198.349060 
	C352.681061,196.386917 352.399780,194.434128 352.166534,192.187515 
	C358.908539,191.105438 364.645020,190.695923 369.683716,196.975143 
	C377.386627,206.574509 386.190491,215.283310 394.244781,224.613770 
	C395.914825,226.548462 397.094299,229.511841 397.218018,232.063278 
	C397.596893,239.876022 397.256714,247.720688 397.395325,255.549423 
	C397.452820,258.798126 396.223938,259.937012 392.991119,259.887970 
	C383.496033,259.743866 373.997314,259.839325 364.000000,259.840912 
z"/>
<path fill="#B2400E" opacity="1.000000" stroke="none" 
	d="
M326.722656,187.754028 
	C326.405334,192.565933 328.517670,194.312668 332.732880,194.014038 
	C334.722534,193.873077 336.748474,194.164185 338.726715,193.958618 
	C343.595062,193.452682 345.223236,195.637192 345.072113,200.352585 
	C344.854584,207.140610 345.067719,207.154053 338.059174,207.164154 
	C332.226776,207.172546 326.388367,207.002930 320.564178,207.221085 
	C317.033600,207.353333 315.936005,205.997894 315.973419,202.575272 
	C316.109955,190.078766 316.048920,177.579727 316.007843,165.081818 
	C315.988495,159.188095 314.148224,157.210403 308.304688,157.198273 
	C280.975769,157.141586 253.646591,157.137604 226.317734,157.203751 
	C220.685394,157.217377 218.918640,159.141357 218.898514,164.807510 
	C218.854126,177.305389 218.783371,189.804764 218.939835,202.300812 
	C218.985275,205.929428 217.891159,207.377808 214.094406,207.233292 
	C207.438354,206.979950 200.763214,207.045624 194.101364,207.202591 
	C190.694534,207.282867 189.492355,205.651779 189.959579,202.638824 
	C190.453903,199.451157 187.862564,194.642288 193.858047,194.064423 
	C196.830872,193.777893 199.856262,193.894333 202.850754,194.010834 
	C206.682251,194.159851 208.242874,192.452362 208.206558,188.627594 
	C208.100571,177.463730 208.146805,166.298050 208.186203,155.133270 
	C208.215866,146.724899 210.907730,144.004898 219.225983,144.000122 
	C251.387604,143.981674 283.549225,143.981232 315.710846,144.000748 
	C323.701385,144.005600 326.621338,146.831345 326.686951,154.788132 
	C326.776306,165.619064 326.715820,176.451248 326.722656,187.754028 
z"/>
<path fill="#AD3E0E" opacity="1.000000" stroke="none" 
	d="
M258.149780,280.480225 
	C258.120392,272.230194 258.213593,264.427216 258.062805,256.629028 
	C257.999084,253.333130 258.911255,251.714951 262.551331,251.920151 
	C266.994629,252.170654 271.462799,251.979767 276.689362,251.979767 
	C276.689362,262.015900 276.739655,271.576508 276.597137,281.134216 
	C276.585297,281.927002 275.295502,283.348022 274.555542,283.377625 
	C269.756470,283.569427 264.940491,283.556519 260.143188,283.331604 
	C259.450653,283.299133 258.828430,281.767242 258.149780,280.480225 
z"/>
<path fill="#9E7039" opacity="1.000000" stroke="none" 
	d="
M113.313934,137.023041 
	C112.901985,136.652618 112.432961,135.744843 112.654037,135.522141 
	C116.165939,131.984634 119.766258,128.534897 123.696655,125.309952 
	C120.557266,129.304672 117.067596,133.054535 113.313934,137.023041 
z"/>
<path fill="#B98343" opacity="1.000000" stroke="none" 
	d="
M446.585815,309.864044 
	C446.694061,310.961914 446.521027,312.243927 446.138123,313.765900 
	C446.053680,312.686646 446.179108,311.367401 446.585815,309.864044 
z"/>
<path fill="#B98343" opacity="1.000000" stroke="none" 
	d="
M437.427948,337.377136 
	C437.531525,337.944122 437.428162,338.676025 437.122681,339.720703 
	C437.020721,339.203003 437.120850,338.372559 437.427948,337.377136 
z"/>
<path fill="#B98343" opacity="1.000000" stroke="none" 
	d="
M449.260040,299.341675 
	C449.383728,299.913574 449.318695,300.672455 449.041138,301.753510 
	C448.909546,301.226685 448.990417,300.377625 449.260040,299.341675 
z"/>
<path fill="#9E7039" opacity="1.000000" stroke="none" 
	d="
M122.954636,121.341370 
	C123.259827,121.636177 123.661324,122.181816 123.865799,122.898300 
	C123.462837,122.576828 123.256889,122.084518 122.954636,121.341370 
z"/>
</svg>